<?xml version="1.0" encoding="UTF-8"?>
<svg version="1.1" xmlns="http://www.w3.org/2000/svg" width="272" height="272">
<path d="M0 0 C10.5015543 9.12914901 19.61818788 18.97042601 27.02880859 30.76367188 C27.41762207 31.37791016 27.80643555 31.99214844 28.20703125 32.625 C46.30188201 61.70201606 53.27692526 98.7635844 46.13037109 132.40820312 C40.19581446 156.99179192 29.33600058 177.48317608 13.02880859 196.76367188 C12.52865234 197.39917969 12.02849609 198.0346875 11.51318359 198.68945312 C7.08694694 204.22224894 1.60715813 208.44157264 -3.97119141 212.76367188 C-4.85033203 213.446875 -5.72947266 214.13007813 -6.63525391 214.83398438 C-36.87070515 237.5774654 -73.83129803 245.24903992 -111.07275391 240.03320312 C-115.7876735 239.2195936 -120.38168019 238.10979958 -124.97119141 236.76367188 C-126.02306641 236.45888916 -126.02306641 236.45888916 -127.09619141 236.14794922 C-138.26396162 232.82730859 -138.26396162 232.82730859 -141.7890625 230.63110352 C-149.65387034 226.07435834 -157.79597822 228.59477508 -166.22119141 230.20117188 C-167.86477245 230.4936559 -169.50882449 230.78350471 -171.15332031 231.07080078 C-175.30323623 231.80110558 -179.44732576 232.56003886 -183.59069824 233.32647705 C-188.58274102 234.24330189 -193.58282473 235.11435787 -198.58349609 235.98266602 C-201.03098827 236.40937322 -203.47706305 236.84432 -205.92138672 237.28881836 C-211.33219727 238.25276308 -216.47018918 239.1510664 -221.97119141 238.76367188 C-222.97119141 237.76367188 -222.97119141 237.76367188 -223.19995117 234.55712891 C-223.11358006 228.26816166 -221.61085643 222.19654938 -220.31103516 216.06835938 C-220.03860567 214.74915647 -219.7671846 213.42974496 -219.49671936 212.11013794 C-218.35310791 206.54095583 -217.18903209 200.97608348 -216.02270508 195.41162109 C-215.3070375 191.99366688 -214.6018114 188.57368305 -213.90249825 185.15234756 C-213.50579548 183.22856777 -213.09675215 181.30734596 -212.68748474 179.38619995 C-212.44716019 178.21122955 -212.20683563 177.03625916 -211.95922852 175.82568359 C-211.74382919 174.79724335 -211.52842987 173.7688031 -211.3065033 172.709198 C-210.64459324 166.89469088 -212.40249184 162.45410208 -214.72119141 157.20117188 C-220.34047646 143.89827006 -224.08455683 128.53931681 -224.17431641 114.08398438 C-224.18286652 112.98834671 -224.18286652 112.98834671 -224.19158936 111.87057495 C-224.20099957 110.32584052 -224.20755744 108.78108637 -224.21142578 107.23632812 C-224.22101968 104.92995552 -224.25203241 102.62451913 -224.28369141 100.31835938 C-224.37938144 87.04423782 -222.66305697 74.35913805 -218.28369141 61.76367188 C-217.90458618 60.65366821 -217.90458618 60.65366821 -217.51782227 59.52124023 C-211.81073172 43.41204657 -203.05589858 28.74042389 -191.97119141 15.76367188 C-191.55804688 15.27141113 -191.14490234 14.77915039 -190.71923828 14.27197266 C-169.34698223 -10.97970984 -138.24689745 -27.16596348 -105.4152832 -31.04003906 C-66.54679743 -34.16163157 -30.23144802 -25.43223271 0 0 Z " fill="#813FB6" transform="translate(223.97119140625,31.236328125)"/>
<path d="M0 0 C10.5015543 9.12914901 19.61818788 18.97042601 27.02880859 30.76367188 C27.41762207 31.37791016 27.80643555 31.99214844 28.20703125 32.625 C46.30188201 61.70201606 53.27692526 98.7635844 46.13037109 132.40820312 C40.19581446 156.99179192 29.33600058 177.48317608 13.02880859 196.76367188 C12.52865234 197.39917969 12.02849609 198.0346875 11.51318359 198.68945312 C7.08694694 204.22224894 1.60715813 208.44157264 -3.97119141 212.76367188 C-4.85033203 213.446875 -5.72947266 214.13007813 -6.63525391 214.83398438 C-36.87070515 237.5774654 -73.83129803 245.24903992 -111.07275391 240.03320312 C-115.7876735 239.2195936 -120.38168019 238.10979958 -124.97119141 236.76367188 C-126.02306641 236.45888916 -126.02306641 236.45888916 -127.09619141 236.14794922 C-138.26396162 232.82730859 -138.26396162 232.82730859 -141.7890625 230.63110352 C-149.65387034 226.07435834 -157.79597822 228.59477508 -166.22119141 230.20117188 C-167.86477245 230.4936559 -169.50882449 230.78350471 -171.15332031 231.07080078 C-175.30323623 231.80110558 -179.44732576 232.56003886 -183.59069824 233.32647705 C-188.58274102 234.24330189 -193.58282473 235.11435787 -198.58349609 235.98266602 C-201.03098827 236.40937322 -203.47706305 236.84432 -205.92138672 237.28881836 C-211.33219727 238.25276308 -216.47018918 239.1510664 -221.97119141 238.76367188 C-222.97119141 237.76367188 -222.97119141 237.76367188 -223.19995117 234.55712891 C-223.11358006 228.26816166 -221.61085643 222.19654938 -220.31103516 216.06835938 C-220.03860567 214.74915647 -219.7671846 213.42974496 -219.49671936 212.11013794 C-218.35310791 206.54095583 -217.18903209 200.97608348 -216.02270508 195.41162109 C-215.3070375 191.99366688 -214.6018114 188.57368305 -213.90249825 185.15234756 C-213.50579548 183.22856777 -213.09675215 181.30734596 -212.68748474 179.38619995 C-212.44716019 178.21122955 -212.20683563 177.03625916 -211.95922852 175.82568359 C-211.74382919 174.79724335 -211.52842987 173.7688031 -211.3065033 172.709198 C-210.64459324 166.89469088 -212.40249184 162.45410208 -214.72119141 157.20117188 C-220.34047646 143.89827006 -224.08455683 128.53931681 -224.17431641 114.08398438 C-224.18286652 112.98834671 -224.18286652 112.98834671 -224.19158936 111.87057495 C-224.20099957 110.32584052 -224.20755744 108.78108637 -224.21142578 107.23632812 C-224.22101968 104.92995552 -224.25203241 102.62451913 -224.28369141 100.31835938 C-224.37938144 87.04423782 -222.66305697 74.35913805 -218.28369141 61.76367188 C-217.90458618 60.65366821 -217.90458618 60.65366821 -217.51782227 59.52124023 C-211.81073172 43.41204657 -203.05589858 28.74042389 -191.97119141 15.76367188 C-191.55804688 15.27141113 -191.14490234 14.77915039 -190.71923828 14.27197266 C-169.34698223 -10.97970984 -138.24689745 -27.16596348 -105.4152832 -31.04003906 C-66.54679743 -34.16163157 -30.23144802 -25.43223271 0 0 Z M-183.85400391 18.86132812 C-197.9350457 34.7481309 -207.92294594 53.11163097 -212.97119141 73.76367188 C-213.36999512 75.33810059 -213.36999512 75.33810059 -213.77685547 76.94433594 C-215.86613858 85.79539497 -216.49474333 94.25321724 -216.40869141 103.32617188 C-216.40531769 104.0209967 -216.40194397 104.71582153 -216.39846802 105.43170166 C-216.26368113 124.69933531 -213.26264349 143.60859449 -203.88928223 160.74118042 C-200.68930827 167.79050477 -203.87276218 177.39430429 -205.37744141 184.56835938 C-205.6215979 185.7692923 -205.86575439 186.97022522 -206.11730957 188.20755005 C-206.89370578 192.01966286 -207.68184996 195.82922046 -208.47119141 199.63867188 C-209.25848256 203.46993132 -210.04328868 207.30167686 -210.82507324 211.13406372 C-211.31107426 213.51313133 -211.80062932 215.89147621 -212.29406738 218.26901245 C-212.51429565 219.34087799 -212.73452393 220.41274353 -212.96142578 221.51708984 C-213.1568396 222.46035126 -213.35225342 223.40361267 -213.55358887 224.37545776 C-214.05731455 226.85212381 -214.05731455 226.85212381 -213.97119141 229.76367188 C-207.60987858 228.90589698 -201.29774736 227.80106847 -194.97509766 226.69726562 C-192.61903797 226.29001671 -190.26291623 225.88312666 -187.90673828 225.4765625 C-184.21530828 224.8390077 -180.52426625 224.19952295 -176.83422852 223.55395508 C-173.25722218 222.92889117 -169.67883017 222.31235905 -166.10009766 221.69726562 C-165.00403702 221.50353867 -163.90797638 221.30981171 -162.77870178 221.11021423 C-153.73542188 219.56836267 -146.90833816 218.78169599 -138.47119141 223.01367188 C-130.47468781 226.75605441 -122.597674 228.98104463 -113.97119141 230.76367188 C-112.98763672 230.98925781 -112.00408203 231.21484375 -110.99072266 231.44726562 C-79.53404078 237.60275668 -44.71962024 230.12850902 -17.92822266 212.79492188 C-15.20632369 210.86003178 -12.58293321 208.8443463 -9.97119141 206.76367188 C-9.07013672 206.07660156 -8.16908203 205.38953125 -7.24072266 204.68164062 C17.60936048 185.2291778 35.0077544 154.91952009 39.30395508 123.6159668 C41.35044912 105.66697959 40.68743726 88.22765716 36.02880859 70.76367188 C35.53767578 68.86681641 35.53767578 68.86681641 35.03662109 66.93164062 C25.9076291 36.17959824 3.21003914 8.00958556 -24.90869141 -7.44335938 C-32.37508929 -11.38573261 -39.97860045 -14.5384656 -47.98291016 -17.22851562 C-49.82062151 -17.84829279 -51.64342102 -18.51802435 -53.43212891 -19.26757812 C-98.4731402 -36.45245628 -153.01218046 -14.85023553 -183.85400391 18.86132812 Z " fill="#FBF9EE" transform="translate(223.97119140625,31.236328125)"/>
<path d="M0 0 C4.3782512 -0.02469081 8.75646567 -0.04285557 13.13476562 -0.05493164 C14.62468166 -0.05996514 16.11459274 -0.06679242 17.60449219 -0.07543945 C19.74415304 -0.08754805 21.88374868 -0.09323807 24.0234375 -0.09765625 C25.31169434 -0.10289307 26.59995117 -0.10812988 27.92724609 -0.11352539 C31 0 31 0 33 1 C33.26659704 11.28418268 32.55806 21.48731775 31.828125 31.73974609 C31.62304704 34.65274055 31.43245337 37.56647374 31.2421875 40.48046875 C31.11285872 42.33339493 30.98268197 44.18626217 30.8515625 46.0390625 C30.79626373 46.90979401 30.74096497 47.78052551 30.68399048 48.67764282 C30.22877994 54.77122006 30.22877994 54.77122006 28 57 C23.78129229 58.22627884 19.54220445 58.11667336 15.1875 58.0625 C14.49462891 58.05798828 13.80175781 58.05347656 13.08789062 58.04882812 C11.39188932 58.03713156 9.69593297 58.01919924 8 58 C8 61.96 8 65.92 8 70 C3.84419044 67.92209522 0.82011426 65.5418357 -2.6875 62.5625 C-3.28111328 62.07201172 -3.87472656 61.58152344 -4.48632812 61.07617188 C-8.87821594 57.36535218 -8.87821594 57.36535218 -10 54 C-6.37 54 -2.74 54 1 54 C-0.26946514 49.17557816 -0.26946514 49.17557816 -4 46 C-7.14221967 46.31506627 -7.14221967 46.31506627 -10 47 C-10.66 48.98 -11.32 50.96 -12 53 C-23.88 53 -35.76 53 -48 53 C-48 48 -48 48 -47 47 C-45.04618937 46.69826472 -43.08649229 46.43441726 -41.125 46.1875 C-26.49501337 43.9922008 -16.98706017 38.17997288 -7.4375 27 C-1.96937737 19.08243442 -0.75330836 9.35435863 0 0 Z " fill="#8240B6" transform="translate(163,75)"/>
<path d="M0 0 C9.45507219 -0.71359035 17.8320313 2.30704407 25.16015625 8.31640625 C31.68394593 14.28615859 36.14857697 20.53771229 39 29 C39 30.32 39 31.64 39 33 C40.31605225 32.98428955 40.31605225 32.98428955 41.65869141 32.96826172 C44.93508568 32.93403785 48.21128807 32.90903236 51.48779297 32.89013672 C52.90188609 32.88012144 54.31595873 32.86650526 55.72998047 32.84912109 C57.77055946 32.82467441 59.81086303 32.81347216 61.8515625 32.8046875 C63.07697754 32.79421387 64.30239258 32.78374023 65.56494141 32.77294922 C69.03833297 33.00253374 71.76606976 33.7488543 75 35 C75.17758168 46.26657093 74.77077613 57.41472097 73.93798828 68.64990234 C73.74726355 71.28784836 73.58273607 73.92672691 73.41796875 76.56640625 C73.29586963 78.25792867 73.17223052 79.94934079 73.046875 81.640625 C73.0018988 82.42286438 72.95692261 83.20510376 72.9105835 84.01104736 C72.62508354 87.49314613 72.26570902 89.65193915 70.12207031 92.45996094 C66.05593658 95.41085505 62.11940843 95.12084716 57.3125 95.0625 C56.61060547 95.05798828 55.90871094 95.05347656 55.18554688 95.04882812 C53.45699462 95.03706927 51.72848635 95.01913454 50 95 C50 99.29 50 103.58 50 108 C45.42976171 106.85744043 42.99083199 104.71618643 39.5625 101.6875 C38.43930935 100.71165542 37.31561869 99.73638601 36.19140625 98.76171875 C35.65531738 98.29169434 35.11922852 97.82166992 34.56689453 97.33740234 C33.11543967 96.09853202 31.60442806 94.93037372 30.08984375 93.76953125 C29.40019531 93.18558594 28.71054688 92.60164063 28 92 C28 91.34 28 90.68 28 90 C15.46 90 2.92 90 -10 90 C-10 87.36 -10 84.72 -10 82 C-10.6290625 82.03480469 -11.258125 82.06960937 -11.90625 82.10546875 C-18.08936889 82.3010192 -22.34191003 81.48161841 -28 79 C-30.80942189 77.69087425 -30.80942189 77.69087425 -32.69140625 78.7421875 C-33.30886719 79.11601563 -33.92632812 79.48984375 -34.5625 79.875 C-39.25707011 82.4102427 -43.73397542 82.78417932 -49 83 C-49.73360793 78.35381646 -48.51821454 75.92285925 -46.0625 72.125 C-43.38319903 67.82535988 -41.27955359 64.18369981 -42 59 C-42.7641528 56.7744747 -43.58299291 54.56742104 -44.4375 52.375 C-47.86356225 43.43661413 -48.68252007 34.7520807 -45.375 25.625 C-40.87463797 15.99264618 -33.79002459 8.30959985 -24.1328125 3.74609375 C-20.50215644 2.47602908 -16.82310118 2.17699543 -13 2 C-13 2.66 -13 3.32 -13 4 C-13.75023437 4.13535156 -14.50046875 4.27070312 -15.2734375 4.41015625 C-25.17405986 6.49252896 -32.69289477 10.1732177 -38.5 18.6875 C-44.04836872 27.76811508 -45.65479295 37.38592199 -43.36328125 47.9296875 C-42.4307833 51.06833914 -41.46542083 54.06915833 -40 57 C-38.31155023 66.28647376 -42.59722413 73.20528965 -47 81 C-42.45626968 80.07310494 -38.18818927 79.01968518 -34 77 C-32.48751503 74.56982752 -32.00009891 72.74225204 -31.58984375 69.92578125 C-31.39519531 69.29027344 -31.20054688 68.65476562 -31 68 C-29.06640625 67.16796875 -29.06640625 67.16796875 -27 67 C-26.34 67.33 -25.68 67.66 -25 68 C-24.79859524 71.62528568 -25.14223235 73.86501708 -27 77 C-14.00510751 80.82926418 1.97821093 81.30593014 14.40625 75.484375 C25.109267 69.35915443 32.72649809 61.177194 36.25 49.1875 C38.40935479 39.22723287 37.34041323 29.05859262 32.40625 20.109375 C26.03547553 10.5532133 18.60618069 5.50450171 7.375 3.1875 C5.59222656 2.89939453 5.59222656 2.89939453 3.7734375 2.60546875 C2.85820313 2.40566406 1.94296875 2.20585938 1 2 C0.505 1.01 0.505 1.01 0 0 Z M40 35 C39.87737793 36.02407959 39.75475586 37.04815918 39.62841797 38.10327148 C39.45832624 39.46341877 39.28789828 40.82352403 39.1171875 42.18359375 C39.03750732 42.85660522 38.95782715 43.5296167 38.87573242 44.22302246 C37.38256464 55.93617355 31.38707382 64.16038965 22.8125 72 C14.28402535 78.06469309 5.41425057 80.98595426 -4.9609375 81.75390625 C-6.99195453 81.78619224 -6.99195453 81.78619224 -8 83 C-8 84.65 -8 86.3 -8 88 C3.88 88 15.76 88 28 88 C28.66 86.02 29.32 84.04 30 82 C35.32110092 80.66972477 35.32110092 80.66972477 38.3125 82.125 C40 84 40 84 41 89 C37.37 89 33.74 89 30 89 C31.7267658 92.45353161 32.44812918 93.67274207 35.1875 96.015625 C35.80367187 96.54414063 36.41984375 97.07265625 37.0546875 97.6171875 C37.69664062 98.15601563 38.33859375 98.69484375 39 99.25 C39.64195312 99.80429688 40.28390625 100.35859375 40.9453125 100.9296875 C44.06399199 103.95476656 44.06399199 103.95476656 48 105 C48 101.04 48 97.08 48 93 C49.51980469 93.03480469 49.51980469 93.03480469 51.0703125 93.0703125 C52.42186758 93.0890841 53.77343069 93.1072828 55.125 93.125 C56.12273437 93.15013672 56.12273437 93.15013672 57.140625 93.17578125 C61.49359851 93.21845746 64.97320201 92.65233352 69 91 C71.15351122 88.84648878 70.54735952 84.12898861 70.75390625 81.13671875 C70.81907944 80.23435989 70.88425262 79.33200104 70.95140076 78.40229797 C71.08892091 76.48149397 71.22410709 74.56052169 71.35717773 72.6394043 C71.55901481 69.7376064 71.77012582 66.83659602 71.98242188 63.93554688 C72.64950943 54.61111842 73.25378645 45.35331787 73 36 C70.02640551 34.51320275 67.33700821 34.88887395 64.0234375 34.90234375 C63.33819 34.9037587 62.6529425 34.90517365 61.94692993 34.90663147 C59.75624239 34.91223325 57.5656567 34.92478594 55.375 34.9375 C53.89062648 34.94251478 52.40625135 34.94707772 50.921875 34.95117188 C47.28121685 34.96220323 43.64061836 34.97946901 40 35 Z " fill="#F0E8E9" transform="translate(123,40)"/>
<path d="M0 0 C0.91072266 -0.01224609 1.82144531 -0.02449219 2.75976562 -0.03710938 C4.09104492 -0.04000977 4.09104492 -0.04000977 5.44921875 -0.04296875 C6.24030029 -0.04707764 7.03138184 -0.05118652 7.84643555 -0.05541992 C10.86596907 0.24201953 13.47134839 1.14885751 16.3125 2.1875 C16.49008168 13.45407093 16.08327613 24.60222097 15.25048828 35.83740234 C15.05976355 38.47534836 14.89523607 41.11422691 14.73046875 43.75390625 C14.60836963 45.44542867 14.48473052 47.13684079 14.359375 48.828125 C14.3143988 49.61036438 14.26942261 50.39260376 14.2230835 51.19854736 C13.93758354 54.68064613 13.57820902 56.83943915 11.43457031 59.64746094 C7.36843658 62.59835505 3.43190843 62.30834716 -1.375 62.25 C-2.4278418 62.24323242 -2.4278418 62.24323242 -3.50195312 62.23632812 C-5.23050538 62.22456927 -6.95901365 62.20663454 -8.6875 62.1875 C-8.6875 66.4775 -8.6875 70.7675 -8.6875 75.1875 C-13.25773829 74.04494043 -15.69666801 71.90368643 -19.125 68.875 C-20.24819065 67.89915542 -21.37188131 66.92388601 -22.49609375 65.94921875 C-23.03218262 65.47919434 -23.56827148 65.00916992 -24.12060547 64.52490234 C-25.57206033 63.28603202 -27.08307194 62.11787372 -28.59765625 60.95703125 C-29.28730469 60.37308594 -29.97695312 59.78914063 -30.6875 59.1875 C-30.6875 58.5275 -30.6875 57.8675 -30.6875 57.1875 C-32.32332031 57.20490234 -32.32332031 57.20490234 -33.9921875 57.22265625 C-44.9291983 57.30090001 -55.77525276 56.90982369 -66.6875 56.1875 C-66.6875 55.8575 -66.6875 55.5275 -66.6875 55.1875 C-54.8075 55.1875 -42.9275 55.1875 -30.6875 55.1875 C-30.3575 53.2075 -30.0275 51.2275 -29.6875 49.1875 C-26.6875 47.1875 -26.6875 47.1875 -23.6875 47.375 C-20.62804567 48.20360222 -19.38621143 48.54505999 -17.6875 51.1875 C-17.6875 52.8375 -17.6875 54.4875 -17.6875 56.1875 C-21.3175 56.1875 -24.9475 56.1875 -28.6875 56.1875 C-23.76866759 62.74594321 -17.48490848 67.65589434 -10.6875 72.1875 C-10.6875 68.2275 -10.6875 64.2675 -10.6875 60.1875 C-9.67429688 60.13851562 -8.66109375 60.08953125 -7.6171875 60.0390625 C-6.26560089 59.96397436 -4.91403962 59.88842919 -3.5625 59.8125 C-2.89734375 59.7815625 -2.2321875 59.750625 -1.546875 59.71875 C2.9254089 59.45567448 5.91875436 58.65208188 10.3125 57.1875 C11.6325 39.3675 12.9525 21.5475 14.3125 3.1875 C3.4225 2.8575 -7.4675 2.5275 -18.6875 2.1875 C-18.6875 5.4875 -18.6875 8.7875 -18.6875 12.1875 C-19.0175 12.1875 -19.3475 12.1875 -19.6875 12.1875 C-19.6875 8.5575 -19.6875 4.9275 -19.6875 1.1875 C-13.09373489 0.34731586 -6.64450604 0.00476309 0 0 Z " fill="#E1D2E2" transform="translate(181.6875,72.8125)"/>
<path d="M0 0 C3.57339883 1.92356873 5.69607513 4.0882254 7 8 C7.50154202 14.1188126 7.07788705 17.10653554 3 22 C-1.21758192 24.81172128 -5.04844761 24.9318711 -10 24 C-12.86890102 21.8887997 -14.41311435 19.17377131 -16 16 C-16.50872093 9.89534886 -16.06705978 6.88047174 -12 2 C-7.97387033 -0.68408645 -4.73183082 -0.80610406 0 0 Z " fill="#F8F4EC" transform="translate(180,167)"/>
<path d="M0 0 C3.57339883 1.92356873 5.69607513 4.0882254 7 8 C7.50154202 14.1188126 7.07788705 17.10653554 3 22 C-1.21758192 24.81172128 -5.04844761 24.9318711 -10 24 C-12.86890102 21.8887997 -14.41311435 19.17377131 -16 16 C-16.50872093 9.89534886 -16.06705978 6.88047174 -12 2 C-7.97387033 -0.68408645 -4.73183082 -0.80610406 0 0 Z " fill="#F8F4EC" transform="translate(101,167)"/>
<path d="M0 0 C2.0625 -0.061875 4.125 -0.12375 6.25 -0.1875 C7.99023438 -0.23970703 7.99023438 -0.23970703 9.765625 -0.29296875 C13.22268407 0.02017066 14.51565563 0.65709108 17 3 C16.773125 4.258125 16.54625 5.51625 16.3125 6.8125 C15.98600305 8.99163203 15.98600305 8.99163203 16 11 C17.39588754 12.64594139 17.39588754 12.64594139 19 14 C19.5 16.9375 19.5 16.9375 19 20 C16.15980864 22.97925911 14.57856382 23.93635161 10.44921875 24.390625 C5.22460938 24.1953125 5.22460938 24.1953125 0 24 C0 16.08 0 8.16 0 0 Z " fill="#F9F5ED" transform="translate(153,203)"/>
<path d="M0 0 C12.33018555 -0.49320742 12.33018555 -0.49320742 15.4296875 1.7890625 C17 4 17 4 16.875 7.625 C16 11 16 11 14 13 C14.28875 13.62648437 14.5775 14.25296875 14.875 14.8984375 C15.24625 15.71570313 15.6175 16.53296875 16 17.375 C16.37125 18.18710938 16.7425 18.99921875 17.125 19.8359375 C18 22 18 22 18 24 C16.35 24 14.7 24 13 24 C12.75765625 23.36191406 12.5153125 22.72382813 12.265625 22.06640625 C11.93046875 21.24011719 11.5953125 20.41382813 11.25 19.5625 C10.92515625 18.73878906 10.6003125 17.91507813 10.265625 17.06640625 C9.03289175 14.51194599 9.03289175 14.51194599 5 14 C5 17.3 5 20.6 5 24 C3.35 24 1.7 24 0 24 C0 16.08 0 8.16 0 0 Z " fill="#F7F3EC" transform="translate(113,167)"/>
<path d="M0 0 C1.65 0 3.3 0 5 0 C6.94921875 2.046875 6.94921875 2.046875 8.6875 4.75 C9.55955078 6.07257813 9.55955078 6.07257813 10.44921875 7.421875 C11.73359633 9.55711228 12.8856514 11.7713028 14 14 C14.33 9.38 14.66 4.76 15 0 C16.65 0 18.3 0 20 0 C20 7.92 20 15.84 20 24 C14 24 14 24 12.49267578 22.62304688 C11.97423096 21.68041992 11.97423096 21.68041992 11.4453125 20.71875 C11.05859375 20.04199219 10.671875 19.36523438 10.2734375 18.66796875 C9.89445313 17.95253906 9.51546875 17.23710937 9.125 16.5 C8.7228125 15.78457031 8.320625 15.06914062 7.90625 14.33203125 C6.91721402 12.56589558 5.95587545 10.78430084 5 9 C4.67 13.95 4.34 18.9 4 24 C2.68 24 1.36 24 0 24 C0 16.08 0 8.16 0 0 Z " fill="#F8F5ED" transform="translate(192,167)"/>
<path d="M0 0 C1.65 0 3.3 0 5 0 C5 2.97 5 5.94 5 9 C8.63 9 12.26 9 16 9 C16 6.03 16 3.06 16 0 C17.65 0 19.3 0 21 0 C21 7.92 21 15.84 21 24 C19.35 24 17.7 24 16 24 C16 20.37 16 16.74 16 13 C12.37 13 8.74 13 5 13 C5 16.63 5 20.26 5 24 C3.35 24 1.7 24 0 24 C0 16.08 0 8.16 0 0 Z " fill="#F6F1EB" transform="translate(60,167)"/>
<path d="M0 0 C9.45507219 -0.71359035 17.8320313 2.30704407 25.16015625 8.31640625 C31.68394593 14.28615859 36.14857697 20.53771229 39 29 C39 30.32 39 31.64 39 33 C41.97 33 44.94 33 48 33 C48 33.33 48 33.66 48 34 C45.03 34 42.06 34 39 34 C39.04640625 35.05058594 39.0928125 36.10117188 39.140625 37.18359375 C39.39235116 45.31047614 39.44021512 51.88955242 35 59 C34.360625 60.0725 33.72125 61.145 33.0625 62.25 C30.89750774 65.13665635 28.64384354 67.54500243 26 70 C25.113125 70.825 24.22625 71.65 23.3125 72.5 C14.4907069 79.70749591 4.09758928 82.15149217 -7 83 C-7.33 84.98 -7.66 86.96 -8 89 C-2.06 89 3.88 89 10 89 C10 89.33 10 89.66 10 90 C3.4 90 -3.2 90 -10 90 C-10 87.36 -10 84.72 -10 82 C-11.32 81.67 -12.64 81.34 -14 81 C-12.85144531 80.91363281 -11.70289062 80.82726562 -10.51953125 80.73828125 C4.6039234 79.43797126 17.66749767 76.17909684 28.25 64.625 C35.55207583 55.5966182 37.95601922 45.45655818 37 34 C35.5947967 24.1635769 31.0421624 16.35820977 23.5234375 9.859375 C17.29147294 5.48413144 11.24687632 3.81321537 3.7734375 2.60546875 C2.85820313 2.40566406 1.94296875 2.20585938 1 2 C0.67 1.34 0.34 0.68 0 0 Z " fill="#F0E8E9" transform="translate(123,40)"/>
<path d="M0 0 C1.32 0 2.64 0 4 0 C4 2.97 4 5.94 4 9 C7.63 9 11.26 9 15 9 C15 6.03 15 3.06 15 0 C16.65 0 18.3 0 20 0 C20 7.92 20 15.84 20 24 C18.35 24 16.7 24 15 24 C15 20.37 15 16.74 15 13 C11.37 13 7.74 13 4 13 C4 16.63 4 20.26 4 24 C2.68 24 1.36 24 0 24 C0 16.08 0 8.16 0 0 Z " fill="#FBF9EE" transform="translate(102,203)"/>
<path d="M0 0 C1.32 0 2.64 0 4 0 C4.06058594 1.20398438 4.12117187 2.40796875 4.18359375 3.6484375 C4.26799732 5.22397077 4.35264541 6.79949096 4.4375 8.375 C4.47681641 9.1690625 4.51613281 9.963125 4.55664062 10.78125 C4.68893404 15.02601221 4.68893404 15.02601221 6 19 C7.99954746 19.04254356 10.00041636 19.04080783 12 19 C13.51421001 17.48578999 13.21309856 16.07527232 13.31640625 13.96484375 C13.35830078 13.15595703 13.40019531 12.34707031 13.44335938 11.51367188 C13.50233398 10.2384668 13.50233398 10.2384668 13.5625 8.9375 C13.60568359 8.08349609 13.64886719 7.22949219 13.69335938 6.34960938 C13.79976702 4.23327963 13.90041731 2.11666187 14 0 C15.65 0 17.3 0 19 0 C19.13530844 3.06398451 19.2342407 6.12197126 19.3125 9.1875 C19.35439453 10.05181641 19.39628906 10.91613281 19.43945312 11.80664062 C19.52491771 16.26789186 19.46121926 18.35560146 16.796875 22.078125 C13.8287437 24.11767891 12.48688639 24.65576054 8.9375 24.5625 C8.10089844 24.56378906 7.26429688 24.56507813 6.40234375 24.56640625 C2.98705465 23.76117549 1.94040953 22.9616777 0 20 C-0.48402036 16.5692728 -0.37583832 13.20571393 -0.25 9.75 C-0.23195313 8.81414062 -0.21390625 7.87828125 -0.1953125 6.9140625 C-0.14825673 4.60832985 -0.08253713 2.30469055 0 0 Z " fill="#F8F5ED" transform="translate(128,203)"/>
<path d="M0 0 C5.61 0 11.22 0 17 0 C17 6.35983562 16.04529367 7.92489254 12.0625 12.25 C8.67652783 15.87382141 8.67652783 15.87382141 6 20 C9.96 20 13.92 20 18 20 C18 21.32 18 22.64 18 24 C12.06 24 6.12 24 0 24 C0 18.375 0 18.375 2.40625 15.44921875 C2.90253906 14.83369141 3.39882812 14.21816406 3.91015625 13.58398438 C4.43480469 12.95814453 4.95945313 12.33230469 5.5 11.6875 C6.02464844 11.04232422 6.54929688 10.39714844 7.08984375 9.73242188 C8.38241974 8.14607861 9.68979806 6.57181694 11 5 C7.37 4.67 3.74 4.34 0 4 C0 2.68 0 1.36 0 0 Z " fill="#F9F5ED" transform="translate(144,167)"/>
<path d="M0 0 C3.05945433 0.82860222 4.30128857 1.17005999 6 3.8125 C6 5.4625 6 7.1125 6 8.8125 C2.37 8.8125 -1.26 8.8125 -5 8.8125 C-0.99191229 14.11351923 3.66268841 17.88219212 9 21.8125 C8.34 22.4725 7.68 23.1325 7 23.8125 C4.66061394 21.86102234 2.32849976 19.90189072 0 17.9375 C-0.66773438 17.38191406 -1.33546875 16.82632813 -2.0234375 16.25390625 C-2.65507812 15.71894531 -3.28671875 15.18398437 -3.9375 14.6328125 C-4.52402344 14.14055176 -5.11054688 13.64829102 -5.71484375 13.14111328 C-7 11.8125 -7 11.8125 -7 9.8125 C-8.63582031 9.82990234 -8.63582031 9.82990234 -10.3046875 9.84765625 C-21.2416983 9.92590001 -32.08775276 9.53482369 -43 8.8125 C-43 8.4825 -43 8.1525 -43 7.8125 C-31.12 7.8125 -19.24 7.8125 -7 7.8125 C-6.67 5.8325 -6.34 3.8525 -6 1.8125 C-3 -0.1875 -3 -0.1875 0 0 Z " fill="#D9C5DE" transform="translate(158,120.1875)"/>
<path d="M0 0 C3.0625 0.5 3.0625 0.5 5.4375 2.0625 C7.65714544 5.39196816 7.48357788 7.56993977 7.0625 11.5 C6.04513229 14.26142665 5.70079259 15.18085371 3.0625 16.5 C0.125 16.875 0.125 16.875 -2.9375 16.5 C-5.51202839 13.66801877 -5.91215182 11.74080767 -6.3125 7.9375 C-5.78157411 3.07067935 -5.02625171 0.85553221 0 0 Z " fill="#8849B9" transform="translate(174.9375,170.5)"/>
<path d="M0 0 C3.0625 0.5 3.0625 0.5 5.4375 2.0625 C7.65714544 5.39196816 7.48357788 7.56993977 7.0625 11.5 C6.04513229 14.26142665 5.70079259 15.18085371 3.0625 16.5 C0.125 16.875 0.125 16.875 -2.9375 16.5 C-5.51202839 13.66801877 -5.91215182 11.74080767 -6.3125 7.9375 C-5.78157411 3.07067935 -5.02625171 0.85553221 0 0 Z " fill="#8849B9" transform="translate(95.9375,170.5)"/>
<path d="M0 0 C0 0.66 0 1.32 0 2 C-1.12535156 2.20302734 -1.12535156 2.20302734 -2.2734375 2.41015625 C-12.17405986 4.49252896 -19.69289477 8.1732177 -25.5 16.6875 C-31.04836872 25.76811508 -32.65479295 35.38592199 -30.36328125 45.9296875 C-29.4307833 49.06833914 -28.46542083 52.06915833 -27 55 C-26.93049459 56.54023996 -26.91547643 58.08334988 -26.9375 59.625 C-26.94652344 60.44226563 -26.95554687 61.25953125 -26.96484375 62.1015625 C-26.97644531 62.72804687 -26.98804687 63.35453125 -27 64 C-27.33 64 -27.66 64 -28 64 C-28.2475 62.7625 -28.495 61.525 -28.75 60.25 C-29.56922364 56.44476556 -30.74813264 52.94996873 -32.125 49.3125 C-35.29740861 39.9503167 -35.48902292 30.29010169 -31.26171875 21.2421875 C-24.68171657 9.54893285 -14.05540837 -0.31234241 0 0 Z " fill="#EBE1E7" transform="translate(110,42)"/>
<path d="M0 0 C1.65 0 3.3 0 5 0 C5 7.92 5 15.84 5 24 C3.35 24 1.7 24 0 24 C0 16.08 0 8.16 0 0 Z " fill="#F8F5ED" transform="translate(135,167)"/>
<path d="M0 0 C3.375 -0.125 3.375 -0.125 7 0 C7.66 0.66 8.32 1.32 9 2 C8.625 4.625 8.625 4.625 8 7 C5.36 7 2.72 7 0 7 C0 4.69 0 2.38 0 0 Z " fill="#8646B8" transform="translate(158,216)"/>
<path d="M0 0 C9.33745406 -0.70471351 17.57617901 2.38197331 25 8 C24.34 8.66 23.68 9.32 23 10 C21.453125 8.8553125 21.453125 8.8553125 19.875 7.6875 C14.88044683 4.501785 9.65031669 3.67338454 3.87890625 2.67578125 C2.92886719 2.45277344 1.97882813 2.22976562 1 2 C0.67 1.34 0.34 0.68 0 0 Z " fill="#E5D7E4" transform="translate(123,40)"/>
<path d="M0 0 C2.9375 0.75 2.9375 0.75 4.9375 2.75 C4.6075 3.74 4.2775 4.73 3.9375 5.75 C3.2775 4.76 2.6175 3.77 1.9375 2.75 C-0.47594667 2.08256123 -0.47594667 2.08256123 -3.0625 2.75 C-5.39880748 5.14859044 -5.39880748 5.14859044 -7.0625 7.75 C-6.75 4.875 -6.75 4.875 -6.0625 1.75 C-3.0625 -0.25 -3.0625 -0.25 0 0 Z M-23.0625 7.75 C-17.7825 7.75 -12.5025 7.75 -7.0625 7.75 C-7.0625 8.08 -7.0625 8.41 -7.0625 8.75 C-12.3425 8.75 -17.6225 8.75 -23.0625 8.75 C-23.0625 8.42 -23.0625 8.09 -23.0625 7.75 Z " fill="#FDFCEF" transform="translate(158.0625,120.25)"/>
<path d="M0 0 C0.66 0.99 1.32 1.98 2 3 C1.57847656 3.74765625 1.15695313 4.4953125 0.72265625 5.265625 C-0.09912109 6.74289063 -0.09912109 6.74289063 -0.9375 8.25 C-1.48277344 9.22453125 -2.02804688 10.1990625 -2.58984375 11.203125 C-3.76610835 13.53610409 -4.52101691 15.45350762 -5 18 C-3.68 18.33 -2.36 18.66 -1 19 C-2.98 19 -4.96 19 -7 19 C-7.90693804 13.25605908 -5.4168482 9.89685149 -2.41015625 5.26953125 C-0.86266851 2.97480359 -0.86266851 2.97480359 0 0 Z " fill="#E1D2E2" transform="translate(81,104)"/>
<path d="M0 0 C2.31 0 4.62 0 7 0 C7.042721 1.66611905 7.04063832 3.33382885 7 5 C6 6 6 6 2.9375 6.0625 C1.4834375 6.0315625 1.4834375 6.0315625 0 6 C0 4.02 0 2.04 0 0 Z " fill="#8A4CBA" transform="translate(158,207)"/>
<path d="M0 0 C1.98 0 3.96 0 6 0 C6.38218767 1.65614657 6.71395102 3.32457024 7 5 C6 6 6 6 2.9375 6.0625 C1.4834375 6.0315625 1.4834375 6.0315625 0 6 C0 4.02 0 2.04 0 0 Z " fill="#8240B6" transform="translate(118,171)"/>
<path d="M0 0 C2.5625 0.1875 2.5625 0.1875 4.5625 2.1875 C4.5625 3.1775 4.5625 4.1675 4.5625 5.1875 C1.5925 5.1875 -1.3775 5.1875 -4.4375 5.1875 C-3.20220588 0.24632353 -3.20220588 0.24632353 0 0 Z " fill="#8443B7" transform="translate(157.4375,121.8125)"/>
<path d="M0 0 C1.32 0.66 2.64 1.32 4 2 C2.12050295 5.57104439 0.82946843 7.54744301 -3 9 C-3.36923077 3.46153846 -3.36923077 3.46153846 -1.5 1.125 C-1.005 0.75375 -0.51 0.3825 0 0 Z " fill="#C1A1D3" transform="translate(94,107)"/>
<path d="M0 0 C2 3 2 3 1.6796875 5.26953125 C0.03634964 10.46279799 -1.6883229 14.66056104 -5 19 C-5.66 18.34 -6.32 17.68 -7 17 C-6.401875 16.236875 -5.80375 15.47375 -5.1875 14.6875 C-2.1892401 10.25946492 -1.20772995 5.14200176 0 0 Z " fill="#E7DAE5" transform="translate(160,85)"/>
<path d="M0 0 C1.34384766 0.07250977 1.34384766 0.07250977 2.71484375 0.14648438 C3.65199219 0.20255859 4.58914062 0.25863281 5.5546875 0.31640625 C6.97201172 0.3947168 6.97201172 0.3947168 8.41796875 0.47460938 C10.7555294 0.60447386 13.09268295 0.73944495 15.4296875 0.87890625 C15.4296875 1.20890625 15.4296875 1.53890625 15.4296875 1.87890625 C12.5134757 2.10092238 9.59761006 2.30699123 6.6796875 2.50390625 C5.8546875 2.56835938 5.0296875 2.6328125 4.1796875 2.69921875 C3.38046875 2.75078125 2.58125 2.80234375 1.7578125 2.85546875 C0.65808105 2.934021 0.65808105 2.934021 -0.46386719 3.01416016 C-2.91806691 2.8565771 -4.45884463 2.10155464 -6.5703125 0.87890625 C-4.11781157 -0.34734422 -2.72720815 -0.1553473 0 0 Z " fill="#CEB4D9" transform="translate(105.5703125,119.12109375)"/>
<path d="M0 0 C3.2826932 1.49076434 5.93077441 3.38620321 8.75 5.625 C9.94882813 6.57246094 9.94882813 6.57246094 11.171875 7.5390625 C11.77515625 8.02117187 12.3784375 8.50328125 13 9 C12.34 9.66 11.68 10.32 11 11 C9.16086305 9.5489926 7.3288247 8.08898341 5.5 6.625 C4.4790625 5.81289062 3.458125 5.00078125 2.40625 4.1640625 C1.6121875 3.44992188 0.818125 2.73578125 0 2 C0 1.34 0 0.68 0 0 Z " fill="#E7DBE5" transform="translate(154,133)"/>
<path d="M0 0 C2.125 0.9375 2.125 0.9375 4 2 C3.67 3.32 3.34 4.64 3 6 C1.35 5.67 -0.3 5.34 -2 5 C-2 3.68 -2 2.36 -2 1 C-1.34 0.67 -0.68 0.34 0 0 Z " fill="#F1E9E9" transform="translate(119,77)"/>
<path d="M0 0 C1.98 0.495 1.98 0.495 4 1 C3.67 2.65 3.34 4.3 3 6 C1.68 5.67 0.36 5.34 -1 5 C-0.67 3.35 -0.34 1.7 0 0 Z " fill="#F5F0EB" transform="translate(137,77)"/>
<path d="M0 0 C1.98 0.495 1.98 0.495 4 1 C3.67 2.65 3.34 4.3 3 6 C1.68 5.67 0.36 5.34 -1 5 C-0.67 3.35 -0.34 1.7 0 0 Z " fill="#F6F1EC" transform="translate(100,77)"/>
<path d="M0 0 C0.66 0.66 1.32 1.32 2 2 C1.6875 5.25 1.6875 5.25 1 9 C0.814375 10.134375 0.62875 11.26875 0.4375 12.4375 C0.293125 13.283125 0.14875 14.12875 0 15 C-0.33 15 -0.66 15 -1 15 C-1.02715383 13.25008666 -1.04646551 11.50005055 -1.0625 9.75 C-1.07410156 8.77546875 -1.08570312 7.8009375 -1.09765625 6.796875 C-1.01195577 4.34241322 -0.70706066 2.33831086 0 0 Z " fill="#E4D6E3" transform="translate(77,67)"/>
<path d="M0 0 C2.9375 0.8125 2.9375 0.8125 4.9375 2.8125 C4.6075 3.8025 4.2775 4.7925 3.9375 5.8125 C3.2775 4.8225 2.6175 3.8325 1.9375 2.8125 C-0.52059998 2.5624227 -0.52059998 2.5624227 -3.0625 2.8125 C-4.0525 2.8125 -5.0425 2.8125 -6.0625 2.8125 C-4.08959835 0.07235882 -3.46862789 -0.21236497 0 0 Z " fill="#F0E8E9" transform="translate(158.0625,120.1875)"/>
<path d="M0 0 C0 3 0 3 -2.3125 5.6875 C-5 8 -5 8 -8 8 C-5.36 5.36 -2.72 2.72 0 0 Z " fill="#F2ECEA" transform="translate(153,103)"/>
</svg>
